<svg width="138" height="138" viewBox="0 0 138 138" fill="none" xmlns="http://www.w3.org/2000/svg">
<path d="M74.8668 35.78L106.693 44.2533M68.0534 61.0866L83.9601 65.3267M68.8468 108.773L75.2068 110.473C93.2068 115.273 102.207 117.667 109.3 113.593C116.387 109.527 118.8 100.573 123.62 82.68L130.44 57.3666C135.267 39.4667 137.673 30.52 133.58 23.4666C129.487 16.4133 120.493 14.02 102.487 9.22665L96.1268 7.52665C78.1268 2.72665 69.1268 0.333315 62.0401 4.40665C54.9468 8.47332 52.5334 17.4266 47.7068 35.32L40.8934 60.6333C36.0668 78.5333 33.6534 87.48 37.7534 94.5333C41.8468 101.58 50.8468 103.98 68.8468 108.773Z" stroke="#00BB77" stroke-width="4" stroke-linecap="round"/>
<path d="M68.9999 128.64L62.6532 130.373C44.6932 135.26 35.7199 137.707 28.6399 133.553C21.5732 129.407 19.1599 120.28 14.3532 102.033L7.54652 76.22C2.73318 57.9734 0.326518 48.8467 4.41318 41.66C7.94652 35.44 15.6665 35.6667 25.6665 35.6667" stroke="#00BB77" stroke-width="4" stroke-linecap="round"/>
</svg>
