<svg width="44" height="44" viewBox="0 0 44 44" fill="none" xmlns="http://www.w3.org/2000/svg">
<g clip-path="url(#clip0_3_182)">
<path d="M22 0C9.85 0 0 9.85 0 22C0 34.15 9.85 44 22 44C32.901 44 41.95 36.072 43.696 25.667H43.538C41.91 31.992 36.168 36.667 29.333 36.667C21.233 36.667 14.667 30.1 14.667 22C14.667 13.9 21.233 7.333 29.333 7.333C36.167 7.333 41.91 12.008 43.538 18.333H43.696C41.95 7.928 32.9 0 22 0Z" fill="#166E4E"/>
<path d="M0 22C0 9.85 9.85 0 22 0C32.901 0 41.95 7.928 43.696 18.333H28.87C27.242 12.008 21.5 7.333 14.666 7.333C6.567 7.333 0 13.9 0 22ZM0 22C0 34.15 9.85 44 22 44C32.901 44 41.95 36.072 43.696 25.667H28.87C27.242 31.992 21.5 36.667 14.666 36.667C6.567 36.667 0 30.1 0 22Z" fill="#00BB77"/>
</g>
<defs>
<clipPath id="clip0_3_182">
<rect width="44" height="44" fill="white"/>
</clipPath>
</defs>
</svg>
